<?xml version="1.0" encoding="UTF-8" standalone="no"?>
<!-- This is a Stata 15.1 generated SVG file (http://www.stata.com) -->

<svg version="1.1" width="5.50in" height="4.00in" viewBox="0 0 3960 2880" xmlns="http://www.w3.org/2000/svg" xmlns:xlink="http://www.w3.org/1999/xlink">
	<desc>Stata Graph - Graph</desc>
	<rect x="0" y="0" width="3960" height="2880" style="fill:#EAF2F3;stroke:none"/>
	<rect x="0.00" y="0.00" width="3959.88" height="2880.00" style="fill:#FFFFFF"/>
	<rect x="2.88" y="2.88" width="3954.12" height="2874.24" style="fill:none;stroke:#FFFFFF;stroke-width:5.76"/>
	<rect x="390.80" y="100.86" width="3468.22" height="2388.33" style="fill:#FFFFFF"/>
	<rect x="393.68" y="103.74" width="3462.46" height="2382.57" style="fill:none;stroke:#FFFFFF;stroke-width:5.76"/>
	<line x1="454.16" y1="2289.82" x2="454.16" y2="1683.80" style="stroke:#1A476F;stroke-width:8.64"/>
	<line x1="432.13" y1="1683.80" x2="476.19" y2="1683.80" stroke-linecap="round" style="stroke:#1A476F;stroke-width:8.64"/>
	<line x1="432.13" y1="2289.82" x2="476.19" y2="2289.82" stroke-linecap="round" style="stroke:#1A476F;stroke-width:8.64"/>
	<line x1="1568.04" y1="2017.31" x2="1568.04" y2="1416.12" style="stroke:#1A476F;stroke-width:8.64"/>
	<line x1="1546.01" y1="1416.12" x2="1590.06" y2="1416.12" stroke-linecap="round" style="stroke:#1A476F;stroke-width:8.64"/>
	<line x1="1546.01" y1="2017.31" x2="1590.06" y2="2017.31" stroke-linecap="round" style="stroke:#1A476F;stroke-width:8.64"/>
	<line x1="2681.91" y1="1433.07" x2="2681.91" y2="832.62" style="stroke:#1A476F;stroke-width:8.64"/>
	<line x1="2659.88" y1="832.62" x2="2703.94" y2="832.62" stroke-linecap="round" style="stroke:#1A476F;stroke-width:8.64"/>
	<line x1="2659.88" y1="1433.07" x2="2703.94" y2="1433.07" stroke-linecap="round" style="stroke:#1A476F;stroke-width:8.64"/>
	<line x1="3795.66" y1="766.16" x2="3795.66" y2="164.22" style="stroke:#1A476F;stroke-width:8.64"/>
	<line x1="3773.63" y1="164.22" x2="3817.69" y2="164.22" stroke-linecap="round" style="stroke:#1A476F;stroke-width:8.64"/>
	<line x1="3773.63" y1="766.16" x2="3817.69" y2="766.16" stroke-linecap="round" style="stroke:#1A476F;stroke-width:8.64"/>
	<line x1="454.16" y1="2425.82" x2="454.16" y2="1824.75" style="stroke:#90353B;stroke-width:8.64"/>
	<line x1="432.13" y1="1824.75" x2="476.19" y2="1824.75" stroke-linecap="round" style="stroke:#90353B;stroke-width:8.64"/>
	<line x1="432.13" y1="2425.82" x2="476.19" y2="2425.82" stroke-linecap="round" style="stroke:#90353B;stroke-width:8.64"/>
	<line x1="1568.04" y1="2153.32" x2="1568.04" y2="1556.95" style="stroke:#90353B;stroke-width:8.64"/>
	<line x1="1546.01" y1="1556.95" x2="1590.06" y2="1556.95" stroke-linecap="round" style="stroke:#90353B;stroke-width:8.64"/>
	<line x1="1546.01" y1="2153.32" x2="1590.06" y2="2153.32" stroke-linecap="round" style="stroke:#90353B;stroke-width:8.64"/>
	<line x1="2681.91" y1="1569.08" x2="2681.91" y2="973.45" style="stroke:#90353B;stroke-width:8.64"/>
	<line x1="2659.88" y1="973.45" x2="2703.94" y2="973.45" stroke-linecap="round" style="stroke:#90353B;stroke-width:8.64"/>
	<line x1="2659.88" y1="1569.08" x2="2703.94" y2="1569.08" stroke-linecap="round" style="stroke:#90353B;stroke-width:8.64"/>
	<line x1="3795.66" y1="902.17" x2="3795.66" y2="305.05" style="stroke:#90353B;stroke-width:8.64"/>
	<line x1="3773.63" y1="305.05" x2="3817.69" y2="305.05" stroke-linecap="round" style="stroke:#90353B;stroke-width:8.64"/>
	<line x1="3773.63" y1="902.17" x2="3817.69" y2="902.17" stroke-linecap="round" style="stroke:#90353B;stroke-width:8.64"/>
	<line x1="454.04" y1="1986.87" x2="1567.91" y2="1716.71" stroke-linecap="round" style="stroke:#1A476F;stroke-width:8.64"/>
	<line x1="1567.91" y1="1716.71" x2="2681.79" y2="1132.84" stroke-linecap="round" style="stroke:#1A476F;stroke-width:8.64"/>
	<line x1="2681.79" y1="1132.84" x2="3795.66" y2="465.19" stroke-linecap="round" style="stroke:#1A476F;stroke-width:8.64"/>
	<circle cx="454.04" cy="1986.87" r="26.35" style="fill:#1A476F"/>
	<circle cx="454.04" cy="1986.87" r="22.03" style="fill:none;stroke:#1A476F;stroke-width:8.64"/>
	<circle cx="1567.91" cy="1716.71" r="26.35" style="fill:#1A476F"/>
	<circle cx="1567.91" cy="1716.71" r="22.03" style="fill:none;stroke:#1A476F;stroke-width:8.64"/>
	<circle cx="2681.79" cy="1132.84" r="26.35" style="fill:#1A476F"/>
	<circle cx="2681.79" cy="1132.84" r="22.03" style="fill:none;stroke:#1A476F;stroke-width:8.64"/>
	<circle cx="3795.66" cy="465.19" r="26.35" style="fill:#1A476F"/>
	<circle cx="3795.66" cy="465.19" r="22.03" style="fill:none;stroke:#1A476F;stroke-width:8.64"/>
	<line x1="454.04" y1="2125.35" x2="1567.91" y2="1855.19" stroke-linecap="round" style="stroke:#90353B;stroke-width:8.64"/>
	<line x1="1567.91" y1="1855.19" x2="2681.79" y2="1271.32" stroke-linecap="round" style="stroke:#90353B;stroke-width:8.64"/>
	<line x1="2681.79" y1="1271.32" x2="3795.66" y2="603.67" stroke-linecap="round" style="stroke:#90353B;stroke-width:8.64"/>
	<circle cx="454.04" cy="2125.35" r="26.35" style="fill:#90353B"/>
	<circle cx="454.04" cy="2125.35" r="22.03" style="fill:none;stroke:#90353B;stroke-width:8.64"/>
	<circle cx="1567.91" cy="1855.19" r="26.35" style="fill:#90353B"/>
	<circle cx="1567.91" cy="1855.19" r="22.03" style="fill:none;stroke:#90353B;stroke-width:8.64"/>
	<circle cx="2681.79" cy="1271.32" r="26.35" style="fill:#90353B"/>
	<circle cx="2681.79" cy="1271.32" r="22.03" style="fill:none;stroke:#90353B;stroke-width:8.64"/>
	<circle cx="3795.66" cy="603.67" r="26.35" style="fill:#90353B"/>
	<circle cx="3795.66" cy="603.67" r="22.03" style="fill:none;stroke:#90353B;stroke-width:8.64"/>
	<line x1="390.80" y1="2489.19" x2="390.80" y2="100.86" style="stroke:#000000;stroke-width:5.76"/>
	<line x1="390.80" y1="2278.80" x2="350.83" y2="2278.80" style="stroke:#000000;stroke-width:5.76"/>
	<text x="300.72" y="2278.80" style="font-family:'Helvetica';font-size:99.99px;fill:#000000" transform="rotate(-90 300.72,2278.80)" text-anchor="middle">19</text>
	<line x1="390.80" y1="1873.63" x2="350.83" y2="1873.63" style="stroke:#000000;stroke-width:5.76"/>
	<text x="300.72" y="1873.63" style="font-family:'Helvetica';font-size:99.99px;fill:#000000" transform="rotate(-90 300.72,1873.63)" text-anchor="middle">19.5</text>
	<line x1="390.80" y1="1468.46" x2="350.83" y2="1468.46" style="stroke:#000000;stroke-width:5.76"/>
	<text x="300.72" y="1468.46" style="font-family:'Helvetica';font-size:99.99px;fill:#000000" transform="rotate(-90 300.72,1468.46)" text-anchor="middle">20</text>
	<line x1="390.80" y1="1063.29" x2="350.83" y2="1063.29" style="stroke:#000000;stroke-width:5.76"/>
	<text x="300.72" y="1063.29" style="font-family:'Helvetica';font-size:99.99px;fill:#000000" transform="rotate(-90 300.72,1063.29)" text-anchor="middle">20.5</text>
	<line x1="390.80" y1="658.12" x2="350.83" y2="658.12" style="stroke:#000000;stroke-width:5.76"/>
	<text x="300.72" y="658.12" style="font-family:'Helvetica';font-size:99.99px;fill:#000000" transform="rotate(-90 300.72,658.12)" text-anchor="middle">21</text>
	<line x1="390.80" y1="252.95" x2="350.83" y2="252.95" style="stroke:#000000;stroke-width:5.76"/>
	<text x="300.72" y="252.95" style="font-family:'Helvetica';font-size:99.99px;fill:#000000" transform="rotate(-90 300.72,252.95)" text-anchor="middle">21.5</text>
	<text x="190.71" y="1294.96" style="font-family:'Helvetica';font-size:99.99px;fill:#000000" transform="rotate(-90 190.71,1294.96)" text-anchor="middle">Marginal estimates</text>
	<line x1="390.80" y1="2489.19" x2="3859.02" y2="2489.19" style="stroke:#000000;stroke-width:5.76"/>
	<line x1="454.16" y1="2489.19" x2="454.16" y2="2529.16" style="stroke:#000000;stroke-width:5.76"/>
	<text x="454.16" y="2619.14" style="font-family:'Helvetica';font-size:99.99px;fill:#000000" text-anchor="middle">0</text>
	<line x1="1568.04" y1="2489.19" x2="1568.04" y2="2529.16" style="stroke:#000000;stroke-width:5.76"/>
	<text x="1568.04" y="2619.14" style="font-family:'Helvetica';font-size:99.99px;fill:#000000" text-anchor="middle">1</text>
	<line x1="2681.91" y1="2489.19" x2="2681.91" y2="2529.16" style="stroke:#000000;stroke-width:5.76"/>
	<text x="2681.91" y="2619.14" style="font-family:'Helvetica';font-size:99.99px;fill:#000000" text-anchor="middle">2</text>
	<line x1="3795.66" y1="2489.19" x2="3795.66" y2="2529.16" style="stroke:#000000;stroke-width:5.76"/>
	<text x="3795.66" y="2619.14" style="font-family:'Helvetica';font-size:99.99px;fill:#000000" text-anchor="middle">3</text>
	<text x="2124.91" y="2729.16" style="font-family:'Helvetica';font-size:99.99px;fill:#000000" text-anchor="middle">Time point</text>
	<line x1="468.52" y1="228.57" x2="842.99" y2="228.57" style="stroke:#1A476F;stroke-width:8.64"/>
	<circle cx="655.75" cy="228.57" r="26.35" style="fill:#1A476F"/>
	<circle cx="655.75" cy="228.57" r="22.03" style="fill:none;stroke:#1A476F;stroke-width:8.64"/>
	<line x1="468.52" y1="368.54" x2="842.99" y2="368.54" style="stroke:#90353B;stroke-width:8.64"/>
	<circle cx="655.75" cy="368.54" r="26.35" style="fill:#90353B"/>
	<circle cx="655.75" cy="368.54" r="22.03" style="fill:none;stroke:#90353B;stroke-width:8.64"/>
	<text x="902.88" y="263.60" style="font-family:'Helvetica';font-size:99.99px;fill:#000000">Placebo</text>
	<text x="902.88" y="403.57" style="font-family:'Helvetica';font-size:99.99px;fill:#000000">Active</text>
</svg>
